
<svg xmlns="http://www.w3.org/2000/svg" xml:space="preserve" width="500px" height="600px" version="1.1" style="shape-rendering:geometricPrecision; text-rendering:geometricPrecision; image-rendering:optimizeQuality; fill-rule:evenodd; clip-rule:evenodd"
viewBox="0 0 500 600"
 xmlns:xlink="http://www.w3.org/1999/xlink"
 xmlns:xodm="http://www.corel.com/coreldraw/odm/2003">
 <style>
        .str0{stroke:black;stroke-width:2;stroke-miterlimit:22.9256}
        .str1{stroke:black;stroke-width:2;stroke-miterlimit:22.9256}

        .leafc {fill:none}

        .trunk {fill:rgb(5, 189, 66);}

        .leaf{fill:#21dc5f;
        }
       .leafc {fill:#21dc5f;}
        

        .lightl {fill:#3ff27b;}

        .stem {fill:#99FF00;
          transform-origin: 200px 450px;
          animation: rotacionaai 10s ease-in-out alternate infinite; }
        .center {fill:#FF9933;
          transform-origin: 200px 450px;
          animation: rotacionaai 10s ease-in-out alternate infinite; }
        .lightc {fill:#FF9999;
          transform-origin: 200px 450px;
          animation: rotacionaai 10s ease-in-out alternate infinite; }

        .flower {fill:#FFFF66;
          transform-origin: 200px 450px;
          animation: rotacionaai 10s ease-in-out alternate infinite; }

          .flowerfront {fill:#FFFF66;
            transform-origin: 200px 450px;
            animation: rotacionaai 10s ease-in-out alternate infinite; } 

        .lightf {fill:#FFFF99;
          transform-origin: 200px 450px;
          animation: rotacionaai 10s ease-in-out alternate infinite; }

          .lightffront {fill:#FFFF99;
            transform-origin: 200px 450px;
            animation: rotacionaai 10s ease-in-out alternate infinite; }

          
        .flowerx {fill:#FFFF66;
          transform-origin: 200px 450px;
          animation: rotacionax 10s ease-in-out alternate infinite; }

        @keyframes rotacionaai{
          0%{transform: rotate(0deg)}
          30%{transform: rotate(15deg)}
          40%{transform: rotate(12deg);}
          50%{transform: rotate(15deg);}
          80%{transform: rotate(0deg);}
          100%{transform: rotate(0deg);}
        }
        </style>
 <g id="Layer_x0020_1">
  <metadata id="CorelCorpID_0Corel-Layer"/>
  <path class="leaf str0" d="M191.5 431c0.93,3.36 3.35,9.23 11.5,12 12.07,4.11 29.49,7.48 43,1 48,-23 62,-63 103,-89 8.98,-5.69 58,-33 86,-4 19.25,19.94 5,74 -13,116 -6.01,14.02 -11,39 -1,43 0,0 -4.32,-25.7 0,-33 9.18,-15.51 21.29,-32.87 34,-56 4.06,-7.38 17,-64 -17,-87 -8.89,-6.01 -17.33,-15.57 -28,-18 -22,-5 -30.36,2.69 -37,4 -3.46,0.69 -16.99,2.74 -32,11 -14,7.7 -39.73,20.3 -54,33 -2.71,2.41 -31.88,29.84 -58,48 -18.98,13.2 -37.5,19 -37.5,19z"/>
  <path class="leafc str0" d="M248 424c26,-42 64,-60 103,-81"/>
  <path class="flowerfront str0" d="M229.47 64.75c-2,-41 10.47,-41.05 7.41,-42.94 -5.5,-3.4 -20.14,-11.06 -30.41,-11.06 -14,0 -20,2 -29,7 -15.63,8.68 -29.01,41.55 -23,46 30.99,23 119.25,31.85 152,-3 7.46,-7.95 20,-52 -39,-53 -29.07,-0.49 -38,16 -38,57z"/>
  <path class="lightl str1" d="M418 323c0,-1 -7.17,-2.97 -10,-4 -4.57,-1.66 -8.83,-2.22 -13,-2 -6.77,0.36 -18,5 -32.02,8 -3.39,0.73 -6.9,2.51 -10.98,4 -0.98,0.36 -44.35,20.41 -24,16 0.49,-0.1 51,-19 62,-21 10.27,-1.87 27,0 28,-1z"/>
  <ellipse class="center str0" cx="227.5" cy="92.5" rx="52.5" ry="20.5"/>
  <path class="flower str0" d="M350.42 77.31c-25.37,-11.39 -82.35,-4.59 -89,23 -1.39,5.75 0.54,16.18 8,18 35.41,8.62 60.05,8.98 79,6 10.75,-1.69 19.03,-7.38 28,-6 13.6,2.08 22.96,6.21 27,3 6.54,-5.21 -6.09,-18.41 -9,-27 -2.92,-8.61 -0.51,-10.47 0,-15 1,-9 -5.6,-24.13 -12,-30 -14.45,-13.26 -38.06,-13.78 -57,-12 -55.33,5.18 -63.19,42.2 -51.57,46.63 1.82,0.7 21.83,-22.79 76.57,-6.63z"/>
  <path class="stem str0" d="M206 459c6.06,-49.11 26.48,-204.67 28,-218 3.69,-32.39 3.53,-48.27 6,-65 0.27,-1.85 46.19,-86.96 39,-80 -31,30 -94,20 -104,-2 -3.21,-7.07 18.56,64.15 24,80 3.51,10.23 10.8,49.4 13.04,64.13 6.11,40.16 -12.13,165.12 -20.77,219.81 -2.6,16.47 14.67,1.57 14.73,1.06z"/>
  <path class="flower str0" d="M92.21 97.95c34,-38 62.2,-28.49 84.78,-17.99 32.22,14.99 18.95,61.66 6.22,72.99 -3.18,2.82 -59.69,-16.1 -76,-11 -16,4.99 -31.03,29.33 -43,28 -9,-1 -8.2,-25.16 -14,-44 -4,-13 1,-45.01 29,-59 13.96,-6.98 72.74,-27.87 91,-23 19.5,5.2 22.48,38.56 13.52,37.68 -4.28,-0.41 -54.7,-32.31 -91.52,16.32z"/>
  <path class="flowerfront str0" d="M258.43 153.85c-2,-22 -26.35,-70.82 -100,-34 -38,19 -19.63,57.24 -3.66,61.54 27.66,7.46 6.46,9.72 76.66,22.46 23.2,4.21 51,58 53,8 0.18,-4.67 15,-31 32,-38 17.71,-7.29 51.05,-17.26 38,-45 -6.48,-13.75 -26.02,-33.94 -38,-36 -35,-6 -76,9 -84.51,19.89 -1.29,1.65 20.51,8.11 26.51,41.11z"/>
  <path class="lightffront str1" d="M231.2 114.63c33.82,-25.77 85.6,-21.66 85.23,-21.78 -39.16,-12.16 -69.65,-0.61 -85.23,21.78z"/>
  <path class="lightffront str1" d="M149.59 125.34c63.41,-34.34 98.54,5.62 98.11,4.8 -20.2,-37.64 -80.7,-24.14 -98.11,-4.8z"/>
  <path class="lightf str1" d="M273.12 63.05c22.83,-25.43 103.95,-17.99 103.11,-18.36 -52.23,-22.69 -103.23,-4.69 -103.11,18.36z"/>
  <path class="lightffront str1" d="M232.01 31.13c41.99,-27.13 79.33,1.83 79,0.97 -14.01,-36.1 -75.01,-31.1 -79,-0.97z"/>
  <path class="lightf str1" d="M108.15 57.32c73.85,-26.32 79.81,8.89 79.55,8.01 -11.7,-39.29 -57.96,-19.83 -79.55,-8.01z"/>
  <path class="lightf str1" d="M93.99 97.4c51.46,-37.57 98.97,-2.44 98.42,-3.17 -30.12,-40.16 -84.68,-20.4 -98.42,3.17z"/>
  <path class="lightffront str1" d="M162.69 33.38c42,-27.13 74.05,-9.41 73.32,-9.96 -22.01,-16.42 -58.45,-21.01 -73.32,9.96z"/>
  <path class="lightc str1" d="M183.19 81.5c52.81,-15.38 91.45,2.92 90.66,2.44 -35.55,-21.61 -71.18,-12.59 -90.66,-2.44z"/>
  <path class="trunk str0" d="M81 595.29c-0.25,0.43 36,5 59,-16 47.59,-43.45 35,-60 56,-89 9.97,-13.76 45,-43 45,-43 -1.91,-3.4 -23.46,1.18 -36,-4 -12.97,-5.36 -17,-28 -17,-28 -4,62 -22.66,103.44 -40,123 -17.25,19.46 -49,33 -67,57z"/>
 </g>
</svg>
